<svg width="50" height="50" viewBox="0 0 50 50" fill="none" xmlns="http://www.w3.org/2000/svg">
<g clip-path="url(#clip0_2062_92)">
<g filter="url(#filter0_d_2062_92)">
<path d="M25 42C36.598 42 46 32.598 46 21C46 9.40202 36.598 0 25 0C13.402 0 4 9.40202 4 21C4 32.598 13.402 42 25 42Z" fill="#5C5C5C"/>
<path d="M25 41.5C36.3218 41.5 45.5 32.3218 45.5 21C45.5 9.67816 36.3218 0.5 25 0.5C13.6782 0.5 4.5 9.67816 4.5 21C4.5 32.3218 13.6782 41.5 25 41.5Z" fill="#5C5C5C" stroke="#7CFF89"/>
</g>
<path d="M31.2729 17.7793L23.7736 25.475C23.6324 25.6198 23.6354 25.8518 23.7803 25.993C23.9252 26.1342 24.1571 26.1312 24.2983 25.9863L31.7976 18.2906C31.9388 18.1457 31.9358 17.9138 31.7909 17.7726C31.646 17.6314 31.4141 17.6344 31.2729 17.7793Z" fill="#45FF57" stroke="#52FF64" stroke-width="0.732635"/>
<path d="M19.7813 22.2974L23.352 25.7771C23.4969 25.9183 23.7288 25.9153 23.87 25.7704C24.0112 25.6255 24.0082 25.3936 23.8633 25.2524L20.2927 21.7727C20.1478 21.6315 19.9158 21.6345 19.7746 21.7794C19.6335 21.9243 19.6364 22.1562 19.7813 22.2974Z" fill="#45FF57" stroke="#52FF64" stroke-width="0.732635"/>
</g>
<defs>
<filter id="filter0_d_2062_92" x="0" y="0" width="50" height="50" filterUnits="userSpaceOnUse" color-interpolation-filters="sRGB">
<feFlood flood-opacity="0" result="BackgroundImageFix"/>
<feColorMatrix in="SourceAlpha" type="matrix" values="0 0 0 0 0 0 0 0 0 0 0 0 0 0 0 0 0 0 127 0" result="hardAlpha"/>
<feOffset dy="4"/>
<feGaussianBlur stdDeviation="2"/>
<feComposite in2="hardAlpha" operator="out"/>
<feColorMatrix type="matrix" values="0 0 0 0 0.972549 0 0 0 0 0.745098 0 0 0 0 0.701961 0 0 0 0.2 0"/>
<feBlend mode="normal" in2="BackgroundImageFix" result="effect1_dropShadow_2062_92"/>
<feBlend mode="normal" in="SourceGraphic" in2="effect1_dropShadow_2062_92" result="shape"/>
</filter>
<clipPath id="clip0_2062_92">
<rect width="50" height="50" fill="white"/>
</clipPath>
</defs>
</svg>
